<?xml version="1.0" encoding="utf-8"?>
<!-- Generator: Adobe Illustrator 16.0.0, SVG Export Plug-In . SVG Version: 6.00 Build 0)  -->
<!DOCTYPE svg PUBLIC "-//W3C//DTD SVG 1.1//EN" "http://www.w3.org/Graphics/SVG/1.1/DTD/svg11.dtd" [
	<!ENTITY ns_flows "http://ns.adobe.com/Flows/1.0/">
	<!ENTITY ns_extend "http://ns.adobe.com/Extensibility/1.0/">
	<!ENTITY ns_ai "http://ns.adobe.com/AdobeIllustrator/10.0/">
	<!ENTITY ns_graphs "http://ns.adobe.com/Graphs/1.0/">
]>
<svg version="1.1" id="Layer_1" xmlns:x="&ns_extend;" xmlns:i="&ns_ai;" xmlns:graph="&ns_graphs;"
	 xmlns="http://www.w3.org/2000/svg" xmlns:xlink="http://www.w3.org/1999/xlink" xmlns:a="http://ns.adobe.com/AdobeSVGViewerExtensions/3.0/"
	 x="0px" y="0px" width="319.472px" height="81.891px" viewBox="0 0 319.472 81.891" enable-background="new 0 0 319.472 81.891"
	 xml:space="preserve">
<g>
	<g>
		<g>
			<g>
				<g display="none">
					<g display="inline">
						<g>
							<polygon fill="#BE1E2D" points="161.458,84.223 163.489,84.223 163.489,75.095 170.696,75.095 170.696,72.725 
								163.489,72.725 163.489,66.504 171.819,66.504 171.819,64.132 161.458,64.132 							"/>
							<path fill="#BE1E2D" d="M184.454,75.726c0,2.544-0.328,4.249-0.98,5.127c-0.648,0.879-1.701,1.314-3.148,1.314
								c-0.859,0-1.588-0.212-2.189-0.642c-0.602-0.421-1.031-1.041-1.295-1.854c-0.266-0.814-0.398-2.126-0.398-3.946V64.132
								h-2.033v11.607c0,3.285,0.506,5.582,1.518,6.882c1.002,1.295,2.52,1.945,4.547,1.945c1.434,0,2.621-0.362,3.551-1.086
								c0.936-0.723,1.574-1.7,1.928-2.952c0.354-1.248,0.531-2.844,0.531-4.789V64.132h-2.029V75.726z"/>
							<path fill="#BE1E2D" d="M200.749,78.754c-0.455-0.938-0.986-1.792-1.596-2.56c-0.297-0.379-0.73-0.753-1.299-1.123
								c1.402-0.251,2.473-0.85,3.209-1.792c0.738-0.942,1.105-2.167,1.105-3.683c0-1.149-0.215-2.163-0.65-3.035
								c-0.438-0.869-0.99-1.495-1.666-1.866c-0.68-0.374-1.727-0.563-3.154-0.563h-6.803v20.091h2.031V75.3h2.346
								c0.68,0,1.211,0.103,1.588,0.301c0.379,0.193,0.773,0.572,1.176,1.137c0.402,0.571,1.002,1.677,1.797,3.31l2.047,4.176h2.555
								L200.749,78.754z M196.297,73.001h-4.371v-6.65h4.852c1.09,0,1.912,0.295,2.465,0.877c0.553,0.577,0.832,1.373,0.832,2.387
								c0,0.702-0.146,1.318-0.432,1.852c-0.293,0.527-0.686,0.913-1.178,1.164C197.971,72.875,197.249,73.001,196.297,73.001z"/>
							<polygon fill="#BE1E2D" points="215.481,79.935 207.407,64.132 205.325,64.132 205.325,84.223 207.282,84.223 
								207.282,68.416 215.342,84.223 217.424,84.223 217.424,64.132 215.481,64.132 							"/>
							<rect x="221.252" y="64.132" fill="#BE1E2D" width="2.035" height="20.091"/>
							<polygon fill="#BE1E2D" points="225.711,66.504 230.768,66.504 230.768,84.223 232.803,84.223 232.803,66.504 
								237.891,66.504 237.891,64.132 225.711,64.132 							"/>
							<path fill="#BE1E2D" d="M249.971,75.726c0,2.544-0.328,4.249-0.975,5.127c-0.656,0.879-1.707,1.314-3.152,1.314
								c-0.857,0-1.594-0.212-2.188-0.642c-0.604-0.421-1.035-1.041-1.293-1.854c-0.264-0.814-0.404-2.126-0.404-3.946V64.132
								h-2.031v11.607c0,3.285,0.51,5.582,1.51,6.882c1.01,1.295,2.525,1.945,4.555,1.945c1.436,0,2.623-0.362,3.555-1.086
								c0.932-0.723,1.578-1.7,1.924-2.952c0.354-1.248,0.533-2.844,0.533-4.789V64.132h-2.033V75.726z"/>
							<path fill="#BE1E2D" d="M266.272,78.754c-0.461-0.938-0.992-1.792-1.596-2.56c-0.303-0.379-0.73-0.753-1.305-1.123
								c1.41-0.251,2.48-0.85,3.217-1.792c0.73-0.942,1.1-2.167,1.1-3.683c0-1.149-0.213-2.163-0.646-3.035
								c-0.438-0.869-0.992-1.495-1.67-1.866c-0.676-0.374-1.727-0.563-3.15-0.563h-6.809v20.091h2.035V75.3h2.346
								c0.68,0,1.205,0.103,1.582,0.301c0.387,0.193,0.775,0.572,1.184,1.137c0.398,0.571,1.004,1.677,1.791,3.31l2.049,4.176h2.555
								L266.272,78.754z M261.815,73.001h-4.367v-6.65h4.854c1.086,0,1.908,0.295,2.459,0.877c0.559,0.577,0.832,1.373,0.832,2.387
								c0,0.702-0.146,1.318-0.436,1.852c-0.287,0.527-0.68,0.913-1.17,1.164C263.487,72.875,262.764,73.001,261.815,73.001z"/>
							<polygon fill="#BE1E2D" points="272.979,81.852 272.979,75.014 281.473,75.014 281.473,72.642 272.979,72.642 
								272.979,66.504 282.045,66.504 282.045,64.132 270.946,64.132 270.946,84.223 282.405,84.223 282.405,81.852 							"/>
						</g>
					</g>
				</g>
			</g>
		</g>
	</g>
</g>
<g>
	<g>
		<path fill="#FFFFFF" d="M150.572,7.996c-1.635-2.169-3.799-3.849-6.49-5.05c-2.688-1.207-6.025-2.019-9.994-2.449
			C131.25,0.166,127.146,0,121.765,0H0v81.153h14.848V31.05h107.861c11.441,0,19.365-1.541,23.75-4.625
			c4.377-3.082,6.58-6.841,6.58-11.295C153.039,12.537,152.214,10.157,150.572,7.996z M137.621,22.378
			c-2.91,1.664-7.824,2.497-14.746,2.497H14.848v-18.7h110.558c4.857,0,5.441,0.152,7.238,0.463c2.801,0.501,5.055,1.531,6.773,3.09
			c1.713,1.553,2.568,3.425,2.568,5.619C141.986,18.366,140.525,20.712,137.621,22.378z"/>
		<rect x="21.715" y="39.358" fill="#FFFFFF" width="8.433" height="41.795"/>
		<path fill="#FFFFFF" d="M62.019,66.211c-1.188-1.27-2.688-2.438-4.512-3.506c3.668-0.527,6.422-1.817,8.268-3.862
			c1.84-2.04,2.768-4.634,2.768-7.767c0-2.475-0.613-4.667-1.83-6.581c-1.213-1.919-2.836-3.258-4.861-4.011
			c-2.018-0.746-5.262-1.126-9.73-1.126H34.363v41.795h8.432V63.704h1.711c1.941,0,3.354,0.154,4.252,0.468
			c0.895,0.321,1.74,0.896,2.535,1.738c0.799,0.848,2.283,2.895,4.445,6.148l6.102,9.095h10.094l-5.102-8.156
			C64.814,69.75,63.216,67.484,62.019,66.211z M49.044,57.034h-6.25V46.429h6.588c3.42,0,5.473,0.049,6.158,0.145
			c1.365,0.229,2.426,0.776,3.178,1.639c0.754,0.863,1.125,1.998,1.125,3.408c0,1.254-0.283,2.294-0.855,3.131
			c-0.568,0.836-1.354,1.426-2.367,1.768C55.615,56.864,53.087,57.034,49.044,57.034z"/>
		<path fill="#FFFFFF" d="M91.136,38.648c-3.398,0-6.402,0.55-9.008,1.654c-1.957,0.817-3.764,2.07-5.402,3.761
			c-1.637,1.691-2.941,3.608-3.887,5.73c-1.27,2.888-1.91,6.463-1.91,10.72c0,6.653,1.834,11.868,5.504,15.665
			c3.662,3.789,8.6,5.688,14.816,5.688c6.141,0,11.043-1.909,14.715-5.722c3.664-3.808,5.496-9.091,5.496-15.828
			c0-6.811-1.848-12.118-5.545-15.938C102.22,40.557,97.291,38.648,91.136,38.648z M99.509,71.013
			c-2.156,2.427-4.916,3.636-8.281,3.636c-3.369,0-6.141-1.218-8.326-3.66c-2.189-2.438-3.281-6.029-3.281-10.758
			c0-4.81,1.07-8.412,3.195-10.79c2.129-2.386,4.93-3.577,8.412-3.577c3.469,0,6.264,1.173,8.363,3.531
			c2.098,2.361,3.154,5.927,3.154,10.716C102.746,64.959,101.658,68.594,99.509,71.013z"/>
		<path fill="#FFFFFF" d="M139.751,58.08c-1.977-1.046-5.004-2.042-9.109-3.015c-4.105-0.97-6.688-1.899-7.752-2.789
			c-0.838-0.709-1.252-1.553-1.252-2.542c0-1.084,0.445-1.942,1.338-2.594c1.387-1.003,3.301-1.512,5.754-1.512
			c2.367,0,4.152,0.47,5.348,1.415c1.184,0.942,1.959,2.481,2.318,4.629l8.443-0.369c-0.137-3.838-1.529-6.907-4.18-9.207
			c-2.65-2.302-6.6-3.448-11.848-3.448c-3.201,0-5.947,0.484-8.225,1.454c-2.268,0.97-4.006,2.379-5.211,4.232
			c-1.211,1.854-1.811,3.842-1.811,5.97c0,3.307,1.287,6.112,3.846,8.409c1.828,1.638,5.002,3.017,9.525,4.135
			c3.518,0.875,5.77,1.482,6.754,1.825c1.445,0.514,2.455,1.113,3.033,1.813c0.578,0.691,0.879,1.533,0.879,2.52
			c0,1.536-0.697,2.88-2.07,4.03c-1.383,1.154-3.426,1.729-6.143,1.729c-2.566,0-4.609-0.646-6.113-1.94
			c-1.516-1.292-2.514-3.318-3.012-6.068l-8.211,0.793c0.557,4.677,2.246,8.239,5.076,10.679c2.832,2.44,6.887,3.661,12.17,3.661
			c3.633,0,6.658-0.498,9.094-1.523c2.426-1.017,4.318-2.57,5.639-4.663c1.338-2.087,2-4.326,2-6.728
			c0-2.639-0.557-4.858-1.67-6.654C143.255,60.53,141.718,59.11,139.751,58.08z"/>
	</g>
	<g>
		<g>
			<g>
				<polygon points="157.541,80.471 160.257,80.471 160.257,68.253 169.906,68.253 169.906,65.079 160.257,65.079 160.257,56.751 
					171.411,56.751 171.411,53.57 157.541,53.57 				"/>
				<path d="M188.327,69.096c0,3.401-0.438,5.691-1.309,6.857c-0.87,1.182-2.276,1.769-4.215,1.769c-1.154,0-2.13-0.293-2.935-0.862
					c-0.804-0.563-1.381-1.388-1.736-2.479c-0.35-1.085-0.529-2.845-0.529-5.284V53.57h-2.721v15.543c0,4.4,0.676,7.471,2.026,9.219
					c1.35,1.731,3.382,2.603,6.086,2.603c1.925,0,3.513-0.488,4.762-1.458c1.245-0.964,2.106-2.276,2.578-3.948
					c0.474-1.676,0.709-3.812,0.709-6.415V53.57h-2.717V69.096z"/>
				<path d="M210.147,73.152c-0.614-1.264-1.325-2.404-2.138-3.432c-0.393-0.502-0.976-1.006-1.741-1.496
					c1.884-0.346,3.313-1.147,4.301-2.401c0.986-1.258,1.482-2.902,1.482-4.937c0-1.537-0.294-2.887-0.873-4.059
					c-0.587-1.17-1.327-1.997-2.232-2.507c-0.905-0.492-2.308-0.751-4.22-0.751h-9.115v26.901h2.721V68.527h3.145
					c0.91,0,1.619,0.132,2.125,0.398c0.507,0.264,1.034,0.772,1.573,1.525c0.542,0.773,1.342,2.24,2.407,4.43l2.741,5.59h3.42
					L210.147,73.152z M204.184,65.45h-5.853v-8.904h6.502c1.46,0,2.556,0.393,3.298,1.165c0.742,0.779,1.106,1.845,1.106,3.196
					c0,0.948-0.19,1.774-0.577,2.486c-0.387,0.708-0.912,1.222-1.571,1.555C206.427,65.278,205.458,65.45,204.184,65.45z"/>
				<polygon points="229.873,74.736 219.064,53.57 216.273,53.57 216.273,80.471 218.896,80.471 218.896,59.312 229.689,80.471 
					232.471,80.471 232.471,53.57 229.873,53.57 				"/>
				<rect x="237.596" y="53.57" width="2.724" height="26.901"/>
				<polygon points="243.572,56.751 250.349,56.751 250.349,80.471 253.055,80.471 253.055,56.751 259.874,56.751 259.874,53.57 
					243.572,53.57 				"/>
				<path d="M276.051,69.096c0,3.401-0.434,5.691-1.309,6.857c-0.872,1.182-2.282,1.769-4.216,1.769
					c-1.151,0-2.14-0.293-2.928-0.862c-0.813-0.563-1.391-1.388-1.738-2.479c-0.352-1.085-0.537-2.845-0.537-5.284V53.57h-2.717
					v15.543c0,4.4,0.674,7.471,2.025,9.219c1.345,1.731,3.379,2.603,6.085,2.603c1.925,0,3.519-0.488,4.764-1.458
					c1.246-0.964,2.108-2.276,2.58-3.948c0.467-1.676,0.709-3.812,0.709-6.415V53.57h-2.719V69.096z"/>
				<path d="M297.874,73.152c-0.616-1.264-1.325-2.404-2.138-3.432c-0.401-0.502-0.98-1.006-1.739-1.496
					c1.878-0.346,3.313-1.147,4.299-2.401c0.979-1.258,1.476-2.902,1.476-4.937c0-1.537-0.285-2.887-0.861-4.059
					c-0.586-1.17-1.334-1.997-2.244-2.507c-0.898-0.492-2.309-0.751-4.209-0.751h-9.117v26.901h2.719V68.527h3.143
					c0.911,0,1.608,0.132,2.127,0.398c0.507,0.264,1.029,0.772,1.575,1.525c0.542,0.773,1.345,2.24,2.4,4.43l2.746,5.59h3.426
					L297.874,73.152z M291.898,65.45h-5.84v-8.904h6.502c1.455,0,2.549,0.393,3.291,1.165c0.749,0.779,1.117,1.845,1.117,3.196
					c0,0.948-0.194,1.774-0.577,2.486c-0.395,0.708-0.92,1.222-1.573,1.555C294.148,65.278,293.18,65.45,291.898,65.45z"/>
				<polygon points="306.854,77.296 306.854,68.134 318.225,68.134 318.225,64.973 306.854,64.973 306.854,56.751 318.993,56.751 
					318.993,53.57 304.129,53.57 304.129,80.471 319.472,80.471 319.472,77.296 				"/>
			</g>
		</g>
	</g>
</g>
</svg>
