<?xml version="1.0" encoding="utf-8"?>
<!-- Generator: Adobe Illustrator 16.0.0, SVG Export Plug-In . SVG Version: 6.00 Build 0)  -->
<!DOCTYPE svg PUBLIC "-//W3C//DTD SVG 1.1//EN" "http://www.w3.org/Graphics/SVG/1.1/DTD/svg11.dtd">
<svg version="1.1" id="Layer_1" xmlns="http://www.w3.org/2000/svg" xmlns:xlink="http://www.w3.org/1999/xlink" x="0px" y="0px"
	 width="319.472px" height="81.891px" viewBox="0 0 319.472 81.891" enable-background="new 0 0 319.472 81.891"
	 xml:space="preserve">
<g>
	<g>
		<g>
			<g>
				<g display="none">
					<g display="inline">
						<g>
							<polygon fill="#BE1E2D" points="161.458,84.223 163.489,84.223 163.489,75.095 170.696,75.095 170.696,72.725 
								163.489,72.725 163.489,66.504 171.819,66.504 171.819,64.132 161.458,64.132 							"/>
							<path fill="#BE1E2D" d="M184.455,75.726c0,2.544-0.328,4.249-0.98,5.127c-0.648,0.879-1.701,1.314-3.148,1.314
								c-0.859,0-1.588-0.212-2.188-0.643c-0.603-0.421-1.031-1.041-1.296-1.854c-0.266-0.814-0.397-2.126-0.397-3.946V64.132
								h-2.032V75.74c0,3.284,0.506,5.581,1.518,6.882c1.002,1.295,2.52,1.944,4.547,1.944c1.434,0,2.621-0.361,3.551-1.086
								c0.936-0.723,1.574-1.7,1.928-2.952c0.354-1.248,0.531-2.844,0.531-4.788V64.132h-2.029v11.594H184.455z"/>
							<path fill="#BE1E2D" d="M200.75,78.754c-0.455-0.938-0.986-1.792-1.597-2.561c-0.297-0.379-0.729-0.753-1.299-1.123
								c1.401-0.251,2.474-0.85,3.209-1.792c0.737-0.941,1.104-2.167,1.104-3.683c0-1.149-0.215-2.163-0.649-3.035
								c-0.438-0.869-0.99-1.495-1.666-1.866c-0.681-0.374-1.728-0.563-3.153-0.563h-6.804v20.091h2.03V75.3h2.347
								c0.681,0,1.211,0.103,1.588,0.301c0.379,0.193,0.772,0.572,1.177,1.137c0.401,0.571,1.002,1.678,1.797,3.311l2.047,4.176
								h2.555L200.75,78.754z M196.296,73.001h-4.371v-6.65h4.853c1.091,0,1.912,0.295,2.466,0.877
								c0.553,0.577,0.832,1.373,0.832,2.388c0,0.701-0.146,1.317-0.433,1.852c-0.293,0.527-0.687,0.913-1.179,1.164
								C197.971,72.875,197.25,73.001,196.296,73.001z"/>
							<polygon fill="#BE1E2D" points="215.481,79.935 207.408,64.132 205.326,64.132 205.326,84.223 207.283,84.223 
								207.283,68.416 215.341,84.223 217.423,84.223 217.423,64.132 215.481,64.132 							"/>
							<rect x="221.251" y="64.132" fill="#BE1E2D" width="2.035" height="20.091"/>
							<polygon fill="#BE1E2D" points="225.71,66.504 230.768,66.504 230.768,84.223 232.803,84.223 232.803,66.504 237.891,66.504 
								237.891,64.132 225.71,64.132 							"/>
							<path fill="#BE1E2D" d="M249.971,75.726c0,2.544-0.328,4.249-0.976,5.127c-0.656,0.879-1.707,1.314-3.152,1.314
								c-0.856,0-1.594-0.212-2.188-0.643c-0.604-0.421-1.035-1.041-1.293-1.854c-0.264-0.814-0.404-2.126-0.404-3.946V64.132
								h-2.031V75.74c0,3.284,0.511,5.581,1.511,6.882c1.01,1.295,2.524,1.944,4.556,1.944c1.436,0,2.623-0.361,3.555-1.086
								c0.932-0.723,1.578-1.7,1.924-2.952c0.354-1.248,0.533-2.844,0.533-4.788V64.132h-2.033L249.971,75.726L249.971,75.726z"/>
							<path fill="#BE1E2D" d="M266.272,78.754c-0.461-0.938-0.992-1.792-1.597-2.561c-0.303-0.379-0.729-0.753-1.305-1.123
								c1.41-0.251,2.48-0.85,3.217-1.792c0.73-0.941,1.101-2.167,1.101-3.683c0-1.149-0.213-2.163-0.646-3.035
								c-0.438-0.869-0.992-1.495-1.67-1.866c-0.677-0.374-1.728-0.563-3.15-0.563h-6.809v20.091h2.035V75.3h2.346
								c0.68,0,1.205,0.103,1.582,0.301c0.387,0.193,0.774,0.572,1.184,1.137c0.398,0.571,1.004,1.678,1.791,3.311l2.049,4.176
								h2.555L266.272,78.754z M261.815,73.001h-4.366v-6.65h4.854c1.086,0,1.908,0.295,2.459,0.877
								c0.559,0.577,0.832,1.373,0.832,2.388c0,0.701-0.146,1.317-0.436,1.852c-0.287,0.527-0.681,0.913-1.171,1.164
								C263.487,72.875,262.764,73.001,261.815,73.001z"/>
							<polygon fill="#BE1E2D" points="272.979,81.852 272.979,75.014 281.473,75.014 281.473,72.642 272.979,72.642 
								272.979,66.504 282.044,66.504 282.044,64.132 270.946,64.132 270.946,84.223 282.405,84.223 282.405,81.852 							"/>
						</g>
					</g>
				</g>
			</g>
		</g>
	</g>
</g>
<g>
	<g>
		<path fill="#FF0000" d="M150.572,7.996c-1.635-2.169-3.799-3.85-6.49-5.051c-2.688-1.206-6.025-2.019-9.994-2.448
			C131.25,0.166,127.146,0,121.765,0H0v81.152h14.848V31.05h107.861c11.441,0,19.365-1.541,23.75-4.625
			c4.377-3.082,6.58-6.841,6.58-11.295C153.039,12.537,152.214,10.157,150.572,7.996z M137.621,22.378
			c-2.91,1.664-7.824,2.497-14.746,2.497H14.848v-18.7h110.558c4.857,0,5.441,0.152,7.238,0.463c2.801,0.501,5.055,1.531,6.773,3.09
			c1.713,1.554,2.568,3.425,2.568,5.619C141.986,18.366,140.525,20.712,137.621,22.378z"/>
		<rect x="21.715" y="39.358" fill="#FF0000" width="8.433" height="41.795"/>
		<path fill="#FF0000" d="M62.019,66.211c-1.188-1.271-2.688-2.438-4.512-3.506c3.668-0.527,6.422-1.817,8.268-3.862
			c1.84-2.04,2.768-4.634,2.768-7.767c0-2.476-0.613-4.667-1.83-6.581c-1.213-1.919-2.836-3.259-4.861-4.012
			c-2.018-0.746-5.262-1.126-9.73-1.126H34.363v41.795h8.432V63.704h1.711c1.941,0,3.354,0.153,4.252,0.468
			c0.895,0.321,1.74,0.896,2.535,1.738c0.799,0.848,2.283,2.895,4.445,6.147l6.102,9.095h10.094l-5.102-8.155
			C64.814,69.75,63.216,67.484,62.019,66.211z M49.044,57.034h-6.25V46.429h6.588c3.42,0,5.473,0.049,6.158,0.146
			c1.365,0.229,2.426,0.775,3.178,1.639c0.754,0.863,1.125,1.998,1.125,3.408c0,1.254-0.283,2.294-0.855,3.131
			c-0.568,0.836-1.354,1.426-2.367,1.768C55.615,56.865,53.087,57.034,49.044,57.034z"/>
		<path fill="#FF0000" d="M91.136,38.648c-3.398,0-6.402,0.551-9.008,1.654c-1.957,0.817-3.764,2.07-5.402,3.761
			c-1.637,1.691-2.941,3.608-3.887,5.73c-1.27,2.888-1.91,6.463-1.91,10.72c0,6.653,1.834,11.868,5.504,15.665
			c3.662,3.789,8.6,5.688,14.816,5.688c6.141,0,11.043-1.909,14.715-5.723c3.664-3.808,5.496-9.091,5.496-15.828
			c0-6.811-1.848-12.117-5.545-15.938C102.22,40.557,97.291,38.648,91.136,38.648z M99.509,71.013
			c-2.156,2.427-4.916,3.636-8.281,3.636c-3.369,0-6.141-1.218-8.326-3.659c-2.189-2.438-3.281-6.029-3.281-10.759
			c0-4.81,1.07-8.412,3.195-10.79c2.129-2.386,4.93-3.576,8.412-3.576c3.469,0,6.264,1.173,8.363,3.53
			c2.098,2.361,3.154,5.927,3.154,10.716C102.746,64.959,101.658,68.594,99.509,71.013z"/>
		<path fill="#FF0000" d="M139.751,58.08c-1.977-1.046-5.004-2.042-9.109-3.016c-4.105-0.97-6.688-1.898-7.752-2.789
			c-0.838-0.709-1.252-1.553-1.252-2.542c0-1.084,0.445-1.941,1.338-2.594c1.387-1.003,3.301-1.512,5.754-1.512
			c2.367,0,4.152,0.47,5.348,1.415c1.184,0.941,1.959,2.48,2.318,4.629l8.443-0.369c-0.137-3.838-1.529-6.907-4.18-9.207
			c-2.65-2.302-6.6-3.448-11.848-3.448c-3.201,0-5.947,0.484-8.225,1.454c-2.268,0.97-4.006,2.379-5.211,4.232
			c-1.211,1.854-1.811,3.842-1.811,5.97c0,3.307,1.287,6.112,3.846,8.409c1.828,1.638,5.002,3.017,9.525,4.135
			c3.518,0.875,5.77,1.482,6.754,1.825c1.445,0.514,2.455,1.113,3.033,1.813c0.578,0.691,0.879,1.533,0.879,2.521
			c0,1.536-0.697,2.88-2.07,4.03c-1.383,1.153-3.426,1.729-6.143,1.729c-2.566,0-4.609-0.646-6.113-1.939
			c-1.516-1.292-2.514-3.318-3.012-6.068l-8.211,0.793c0.557,4.677,2.246,8.239,5.076,10.679c2.832,2.44,6.887,3.661,12.17,3.661
			c3.633,0,6.658-0.498,9.094-1.522c2.426-1.018,4.318-2.57,5.639-4.663c1.338-2.087,2-4.326,2-6.729
			c0-2.639-0.557-4.857-1.67-6.654C143.255,60.53,141.718,59.11,139.751,58.08z"/>
	</g>
	<g>
		<g>
			<g>
				<polygon points="157.541,80.471 160.257,80.471 160.257,68.253 169.906,68.253 169.906,65.079 160.257,65.079 160.257,56.751 
					171.412,56.751 171.412,53.57 157.541,53.57 				"/>
				<path d="M188.328,69.096c0,3.401-0.438,5.691-1.31,6.857c-0.87,1.182-2.276,1.769-4.215,1.769c-1.154,0-2.13-0.293-2.935-0.862
					c-0.805-0.563-1.382-1.388-1.736-2.479c-0.35-1.085-0.529-2.845-0.529-5.284V53.57h-2.721v15.543c0,4.4,0.676,7.472,2.025,9.22
					c1.35,1.73,3.383,2.603,6.086,2.603c1.926,0,3.514-0.488,4.762-1.458c1.246-0.964,2.106-2.275,2.578-3.948
					c0.475-1.676,0.709-3.812,0.709-6.414V53.57h-2.717v15.526H188.328z"/>
				<path d="M210.147,73.152c-0.614-1.264-1.325-2.403-2.138-3.432c-0.393-0.502-0.977-1.006-1.741-1.496
					c1.884-0.346,3.313-1.146,4.301-2.4c0.986-1.259,1.481-2.902,1.481-4.938c0-1.537-0.293-2.887-0.872-4.059
					c-0.587-1.17-1.327-1.997-2.232-2.508c-0.905-0.491-2.308-0.751-4.22-0.751h-9.115V80.47h2.721V68.527h3.146
					c0.91,0,1.619,0.133,2.125,0.398c0.507,0.264,1.034,0.772,1.573,1.525c0.541,0.772,1.342,2.239,2.406,4.43l2.741,5.59h3.421
					L210.147,73.152z M204.184,65.45h-5.853v-8.904h6.502c1.459,0,2.556,0.393,3.297,1.165c0.742,0.779,1.106,1.845,1.106,3.196
					c0,0.947-0.19,1.773-0.577,2.485c-0.387,0.708-0.912,1.223-1.57,1.556C206.427,65.278,205.458,65.45,204.184,65.45z"/>
				<polygon points="229.873,74.736 219.064,53.57 216.273,53.57 216.273,80.471 218.896,80.471 218.896,59.312 229.689,80.471 
					232.471,80.471 232.471,53.57 229.873,53.57 				"/>
				<rect x="237.596" y="53.57" width="2.724" height="26.901"/>
				<polygon points="243.572,56.751 250.349,56.751 250.349,80.471 253.055,80.471 253.055,56.751 259.875,56.751 259.875,53.57 
					243.572,53.57 				"/>
				<path d="M276.05,69.096c0,3.401-0.434,5.691-1.309,6.857c-0.871,1.182-2.281,1.769-4.216,1.769c-1.151,0-2.14-0.293-2.928-0.862
					c-0.813-0.563-1.392-1.388-1.738-2.479c-0.353-1.085-0.536-2.845-0.536-5.284V53.57h-2.718v15.543c0,4.4,0.674,7.472,2.024,9.22
					c1.346,1.73,3.379,2.603,6.086,2.603c1.925,0,3.519-0.488,4.764-1.458c1.246-0.964,2.107-2.275,2.58-3.948
					c0.467-1.676,0.709-3.812,0.709-6.414V53.57h-2.719V69.096L276.05,69.096z"/>
				<path d="M297.875,73.152c-0.617-1.264-1.326-2.403-2.139-3.432c-0.4-0.502-0.98-1.006-1.738-1.496
					c1.877-0.346,3.313-1.146,4.299-2.4c0.979-1.259,1.476-2.902,1.476-4.938c0-1.537-0.285-2.887-0.86-4.059
					c-0.586-1.17-1.334-1.997-2.244-2.508c-0.898-0.491-2.31-0.751-4.209-0.751h-9.117V80.47h2.719V68.527h3.143
					c0.912,0,1.608,0.133,2.127,0.398c0.508,0.264,1.029,0.772,1.576,1.525c0.541,0.772,1.344,2.239,2.399,4.43l2.745,5.59h3.427
					L297.875,73.152z M291.898,65.45h-5.84v-8.904h6.502c1.455,0,2.549,0.393,3.291,1.165c0.749,0.779,1.117,1.845,1.117,3.196
					c0,0.947-0.194,1.773-0.577,2.485c-0.396,0.708-0.92,1.223-1.573,1.556C294.148,65.278,293.18,65.45,291.898,65.45z"/>
				<polygon points="306.853,77.296 306.853,68.134 318.224,68.134 318.224,64.973 306.853,64.973 306.853,56.751 318.994,56.751 
					318.994,53.57 304.128,53.57 304.128,80.471 319.472,80.471 319.472,77.296 				"/>
			</g>
		</g>
	</g>
</g>
</svg>
